<svg width="22" height="22" viewBox="0 0 22 22" fill="none" xmlns="http://www.w3.org/2000/svg">
<path d="M22 5.82372C22 7.36827 21.3865 8.84956 20.2943 9.94172C19.2022 11.0339 17.721 11.6474 16.1765 11.6474C14.632 11.6474 13.1507 11.0339 12.0586 9.94172C10.9665 8.84956 10.3529 7.36827 10.3529 5.82372C10.3529 4.27918 10.9665 2.79789 12.0586 1.70573C13.1507 0.613569 14.632 0 16.1765 0C17.721 0 19.2022 0.613569 20.2943 1.70573C21.3865 2.79789 22 4.27918 22 5.82372ZM16.8235 3.2354C16.8235 3.06379 16.7554 2.8992 16.634 2.77785C16.5127 2.6565 16.3481 2.58832 16.1765 2.58832C16.0049 2.58832 15.8403 2.6565 15.7189 2.77785C15.5976 2.8992 15.5294 3.06379 15.5294 3.2354V5.17664H13.5882C13.4166 5.17664 13.252 5.24482 13.1307 5.36617C13.0093 5.48752 12.9412 5.65211 12.9412 5.82372C12.9412 5.99534 13.0093 6.15993 13.1307 6.28128C13.252 6.40263 13.4166 6.4708 13.5882 6.4708H15.5294V8.41204C15.5294 8.58366 15.5976 8.74825 15.7189 8.8696C15.8403 8.99095 16.0049 9.05912 16.1765 9.05912C16.3481 9.05912 16.5127 8.99095 16.634 8.8696C16.7554 8.74825 16.8235 8.58366 16.8235 8.41204V6.4708H18.7647C18.9363 6.4708 19.1009 6.40263 19.2222 6.28128C19.3436 6.15993 19.4118 5.99534 19.4118 5.82372C19.4118 5.65211 19.3436 5.48752 19.2222 5.36617C19.1009 5.24482 18.9363 5.17664 18.7647 5.17664H16.8235V3.2354ZM16.1765 12.9416C17.8976 12.9416 19.4765 12.3308 20.7059 11.3148V14.593C20.7059 16.4281 19.1995 17.9138 17.3412 17.9138H11.4012L6.21047 21.7458C5.93486 21.9485 5.59074 22.0351 5.252 21.987C4.91326 21.9388 4.6069 21.7598 4.39871 21.4882C4.23214 21.2685 4.14173 21.0004 4.14118 20.7247V17.9138H3.36471C1.50635 17.9138 0 16.4268 0 14.593V5.90914C0 4.07531 1.50635 2.58832 3.36471 2.58832H9.83529C9.28152 3.67354 9.01555 4.88274 9.06287 6.10018C9.11019 7.31761 9.4692 8.50252 10.1055 9.54148C10.7419 10.5804 11.6342 11.4387 12.6972 12.034C13.7602 12.6293 14.9582 12.9418 16.1765 12.9416Z" fill="#0077B2"/>
</svg>
